# xmcd CD database file
#
# Track frame offsets:
#	150
#	22845
#	41875
#	77396
#	88181
#	113107
#	132603
#	154987
#	171550
#	194602
#	222166
#	242394
#
# Disc length: 3492 seconds
#
# Revision: 0
# Processed by: cddbd v1.4b42PL1 Copyright (c) Steve Scherf et al.
# Submitted via: CDex 1.40Beta7
#
DISCID=a30da20c
DTITLE=Roger Higgins - Keep On Drivin
DYEAR=2000
DGENRE=Blues
TTITLE0=Keep On Drivin
TTITLE1=Down Through The Blues
TTITLE2=Stormy Monday
TTITLE3=Further Down The line
TTITLE4=Come On Mr DJ,PLay Some Texas Blues
TTITLE5=Why?
TTITLE6=Long Time Coming
TTITLE7=A Little Rock and Roll
TTITLE8=You Say That You Love Me
TTITLE9=Bad Case Of The Blues
TTITLE10=Further On Up The Road
TTITLE11=Driften
EXTD=YEAR: 2000 ID3G: 0
EXTT0=
EXTT1=
EXTT2=
EXTT3=
EXTT4=
EXTT5=
EXTT6=
EXTT7=
EXTT8=
EXTT9=
EXTT10=
EXTT11=
PLAYORDER=
